<?xml version="1.0" encoding="UTF-8"?>
<svg width="24px" height="24px" viewBox="0 0 24 24" version="1.1" xmlns="http://www.w3.org/2000/svg" xmlns:xlink="http://www.w3.org/1999/xlink">
    <defs>
        <linearGradient x1="0%" y1="0.0134410558%" x2="100%" y2="99.9865589%" id="linearGradient-1">
            <stop stop-color="#398BFF" offset="0%"></stop>
            <stop stop-color="#8864FF" offset="100%"></stop>
        </linearGradient>
    </defs>
    <g id="LOGO/UniPass-旧/图案" stroke="none" stroke-width="1" fill="none" fill-rule="evenodd">
        <g fill="url(#linearGradient-1)" fill-rule="nonzero" id="形状结合">
            <path d="M20.7010848,19.687708 L21.001629,19.7600029 L21.124829,19.7920029 L21.040029,19.8880029 C20.8675751,20.0858209 20.6885747,20.2777854 20.5033333,20.4635794 L20.220829,20.7376029 L20.192029,20.7648029 L20.152029,20.7648029 C17.1510362,20.2064496 14.0908659,21.3129053 12.140473,23.6412769 L11.955229,23.8704029 L11.905629,23.9360029 L11.859229,23.9968029 L11.820829,23.9968029 C11.5562956,23.9925362 11.2910512,23.9797362 11.0293623,23.958877 L10.640029,23.9216029 L10.513629,23.9072029 L10.584029,23.8000029 C10.720029,23.5792029 10.880029,23.3632029 11.040029,23.1600029 C13.3227385,20.2241127 17.0898061,18.8800811 20.7010848,19.687708 Z M18.774429,21.6336029 L18.899229,21.6352029 L19.137629,21.6352029 L18.944029,21.7728029 C17.4410165,22.8429562 15.7129737,23.5510733 13.8949366,23.8443311 L13.504029,23.9008029 L13.268829,23.9296029 L13.440029,23.7696029 C14.8727409,22.3910068 16.7861851,21.6248257 18.774429,21.6336029 Z M16.4395347,17.6575631 C16.5451201,17.7336431 16.6210305,17.8426028 16.6564374,17.9659161 L16.675229,18.0608029 L16.6786706,18.1421523 C16.6660088,18.3982114 16.4826119,18.6203941 16.224029,18.6752029 C13.8668065,19.1837748 11.7646914,20.5079373 10.288029,22.4144029 C10.0592184,22.7098206 9.84623018,23.0170527 9.64993185,23.3347994 L9.45922896,23.6560029 L9.43042896,23.7072029 L9.37442896,23.6944029 C9.15042896,23.6442695 8.92358451,23.5877362 8.70242896,23.5248029 L8.37602896,23.4256029 L8.28162896,23.3952029 L8.32642896,23.3120029 C8.6311223,22.7507298 8.98164686,22.2155778 9.37442896,21.7120029 C10.8710384,19.778763 12.9509506,18.3794372 15.305629,17.7216029 C15.5317623,17.6650695 15.7573623,17.6117362 15.982429,17.5616029 C16.141512,17.5276061 16.307553,17.5624631 16.4395347,17.6575631 Z M22.8256984,15.9369882 L23.208029,16.0816029 L23.278429,16.1104029 L23.252829,16.1824029 C23.1749623,16.3914695 23.0899845,16.6005362 22.9997919,16.8062844 L22.860829,17.1120029 L22.830429,17.1792029 L22.761629,17.1520029 C17.7199945,15.15468 11.9651252,16.7181492 8.62722896,20.9920029 C8.23894262,21.4907968 7.8897023,22.0185047 7.58250092,22.5704103 L7.36002896,22.9888029 L7.32642896,23.0544029 L7.25922896,23.0240029 C7.05442896,22.9365362 6.85034007,22.8426695 6.64933266,22.7424029 L6.35042896,22.5872029 L6.28322896,22.5504029 L6.31682896,22.4832029 C6.71023699,21.7054467 7.17801906,20.9676049 7.71362896,20.2800029 C9.50373688,17.9658922 12.0104777,16.3104867 14.841629,15.5728029 C17.4816696,14.8838123 20.2653548,15.0126468 22.8256984,15.9369882 Z M6.14629777,19.6892226 L6.22562896,19.7552029 C6.41973919,19.9543402 6.44979449,20.2595684 6.29762896,20.4896029 C6.06540534,20.8432533 5.84897454,21.2069437 5.64895507,21.5795991 L5.45442896,21.9552029 L5.41602896,22.0352029 L5.34082896,21.9856029 C5.15309562,21.8597362 4.96749562,21.7274695 4.78592525,21.5906992 L4.51682896,21.3824029 L4.46722896,21.3424029 L4.49602896,21.2848029 C4.74843581,20.7898706 5.02778837,20.3091491 5.33282896,19.8448029 C5.42920155,19.7002662 5.58521268,19.6064571 5.75806408,19.58911 C5.89634519,19.5752323 6.03378776,19.6114561 6.14629777,19.6892226 Z M7.92642896,13.9904029 L7.96642896,14.0048029 C8.30744654,14.1329506 8.66198257,14.2206764 9.02277501,14.2664052 L9.29442896,14.2928029 L9.53122896,14.3088029 L9.33122896,14.4368029 C7.79090321,15.4226487 6.4313962,16.6657967 5.31202896,18.1120029 C4.81547043,18.7505453 4.36754003,19.4251775 3.97190511,20.1301931 L3.74082896,20.5568029 L3.69282896,20.6496029 L3.61762896,20.5760029 C3.45229562,20.4128029 3.28696229,20.2417807 3.1263697,20.0657807 L2.88962896,19.7984029 L2.85442896,19.7568029 L2.88002896,19.7104029 C4.03270749,17.6050193 5.60942612,15.7636826 7.50870289,14.3017059 L7.89282896,14.0144029 L7.92642896,13.9904029 Z M23.4317723,13.9188069 L23.761629,14.0464029 L23.820829,14.0752029 L23.809629,14.1376029 C23.793629,14.2272029 23.777629,14.3152029 23.760029,14.4032029 L23.679629,14.7690029 L23.587229,15.1360029 L23.563229,15.2224029 L23.481629,15.1872029 C21.7804006,14.4780308 19.9551503,14.1141773 18.112029,14.1168029 C17.5193829,14.1169608 16.9273157,14.1538314 16.339229,14.2272029 C12.887758,14.6489476 9.71697405,16.3407168 7.44482896,18.9728029 C7.33999812,19.0950049 7.1890318,19.1680571 7.02815235,19.1744315 C6.8994488,19.1795311 6.77369336,19.1415887 6.6700838,19.0680832 L6.59682896,19.0064029 L6.53123668,18.9293894 C6.37692842,18.7126433 6.387708,18.4122995 6.56962896,18.2064029 C10.7535117,13.3914556 17.4796394,11.6947768 23.4317723,13.9188069 Z M21.8893983,17.8278393 L22.304029,17.9680029 L22.393629,18.0000029 L22.345629,18.0816029 C22.2282956,18.2800029 22.1059845,18.4748473 21.9777475,18.6661362 L21.780829,18.9504029 L21.745629,19.0000029 L21.691229,18.9808029 C20.7733559,18.6757027 19.8176811,18.5018896 18.8525519,18.463937 L18.438429,18.4560029 L18.065629,18.4560029 C17.7958163,18.4667182 17.5591787,18.2910091 17.4854061,18.0398904 L17.465629,17.9424029 L17.463073,17.8474209 C17.4700611,17.7215645 17.5181354,17.600465 17.6013184,17.5034586 C17.7052972,17.3822006 17.8548485,17.3094158 18.014429,17.3024029 C19.3277718,17.2534324 20.6385998,17.4315527 21.8893983,17.8278393 Z M6.03202896,12.6368029 L6.08002896,12.6976029 C6.24556049,12.8857739 6.42538276,13.0606997 6.61783214,13.2208434 L6.81442896,13.3760029 L6.89762896,13.4368029 L6.81602896,13.4992029 L6.81602896,13.4880029 C5.08318459,14.8370126 3.61130605,16.4892409 2.47122719,18.3630993 L2.23202896,18.7680029 L2.16962896,18.8752029 L2.09922896,18.7728029 C1.95629562,18.5690695 1.81905118,18.3560918 1.68939192,18.1395584 L1.50082896,17.8128029 L1.47842896,17.7728029 L1.50242896,17.7328029 C1.87844771,17.1200398 2.28758797,16.5282286 2.72802896,15.9600029 C3.55630137,14.8932336 4.49435242,13.9171445 5.52640936,13.0476639 L5.97442896,12.6816029 L6.03202896,12.6368029 Z M2.44012021,13.1817586 C2.5677131,13.1778848 2.69208516,13.2161425 2.79466771,13.2891996 L2.86722896,13.3504029 C3.08242052,13.5694188 3.09086236,13.9211623 2.88322896,14.1504029 C2.56856229,14.4981362 2.26669562,14.8586695 1.97762896,15.2320029 C1.76002896,15.5125362 1.5452734,15.8051584 1.33668081,16.1056029 L1.02882896,16.5616029 L0.947228955,16.6864029 L0.891228955,16.5488029 C0.785682865,16.2905967 0.689027215,16.028889 0.60142406,15.764143 L0.476828955,15.3648029 L0.465628955,15.3280029 L0.488028955,15.2976029 C0.680028955,15.0272029 0.873628955,14.7648029 1.06402896,14.5200029 C1.37229562,14.1274695 1.69229562,13.7461362 2.02402896,13.3760029 C2.13015487,13.2568469 2.28062909,13.1866009 2.44012021,13.1817586 Z M4.92482896,7.99680288 L4.92482896,9.38560288 L4.89282896,9.40800288 C3.32003293,10.5264625 1.90382207,11.8488015 0.68102788,13.3397089 L0.320028955,13.7920029 L0.160028955,13.9936029 L0.131228955,13.8128029 C0.0826238345,13.4948738 0.0469490887,13.1751689 0.0242767215,12.8544786 L2.89552996e-05,12.3728029 L2.89552996e-05,12.3424029 L0.0256289553,12.3168029 C1.28418266,10.8333804 2.72793624,9.51876835 4.32089963,8.40490687 L4.80322896,8.07680288 L4.92482896,7.99680288 Z M23.4877582,11.7159082 L23.948829,11.8816029 L24.000029,11.9008029 L24.000029,12.0000029 C24.000029,12.2218695 23.993629,12.448714 23.980829,12.6772177 L23.956829,13.0208029 L23.947229,13.1264029 L23.849629,13.0864029 C21.9724786,12.3310829 19.9674403,11.9443077 17.944029,11.9472029 C16.5845975,11.9457585 15.2311018,12.1158561 13.9155287,12.4529666 L13.424029,12.5872029 L13.195229,12.6528029 L13.340829,12.4640029 C13.5629106,12.174068 13.7501475,11.859418 13.8989191,11.5265593 L14.003229,11.2736029 L14.019229,11.2352029 L14.059229,11.2256029 C14.6307609,11.0945483 15.2085691,10.9925507 15.790429,10.9200029 C18.3854495,10.5948847 21.0182467,10.8680859 23.4877582,11.7159082 Z M5.03202896,10.6176029 L5.06082896,10.7328029 C5.12205414,10.9844332 5.20438262,11.2302931 5.30686448,11.4677899 L5.41602896,11.7024029 L5.44002896,11.7600029 L5.39042896,11.7984029 C4.98829562,12.1141362 4.59896229,12.4458695 4.22242896,12.7936029 C4.01951055,12.9786068 3.71957407,12.9941698 3.50046059,12.8434929 L3.42242896,12.7792029 L3.36160825,12.7074797 C3.28890622,12.6060796 3.25037775,12.4831128 3.2532782,12.3567015 C3.25690376,12.1986875 3.32494705,12.0490186 3.44162896,11.9424029 C3.76091784,11.6480029 4.08874007,11.3642695 4.42509562,11.0912029 L4.93602896,10.6896029 L5.03202896,10.6176029 Z M23.307229,9.44320288 L23.629029,9.54420288 L23.947229,9.65120288 L23.996829,9.67040288 L23.996829,10.9008029 L23.891229,10.8624029 C23.5861623,10.7504029 23.278429,10.6469362 22.968029,10.5520029 C22.7345082,10.4803374 22.5740415,10.2719134 22.5587973,10.0342762 L22.560029,9.94400288 L22.5786654,9.84203712 C22.6153652,9.70964649 22.6983611,9.59337797 22.8143504,9.51563779 C22.9593371,9.41846255 23.1404143,9.39185091 23.307229,9.44320288 Z M4.39682896,5.69920288 L4.44002896,5.75680288 C4.60967901,5.98448716 4.73764518,6.23977009 4.81860548,6.51078109 L4.87042896,6.71680288 L4.88162896,6.76480288 L4.83522896,6.79360288 C3.28094319,7.75532378 1.8458771,8.89629354 0.559335172,10.1925857 L0.136028955,10.6304029 L2.89552996e-05,10.7728029 L2.89552996e-05,9.11680288 L0.0240289553,9.09600288 C1.18604409,7.96035393 2.45796319,6.94367229 3.82075819,6.06078503 L4.33602896,5.73600288 L4.39682896,5.69920288 Z M21.332829,8.95040288 C21.5928152,9.00120439 21.7805073,9.22041399 21.798308,9.47678019 L21.796829,9.57440288 C21.7816168,9.74129892 21.698885,9.88950779 21.5688946,9.98753339 C21.4389041,10.085559 21.2736595,10.1243487 21.113629,10.0944029 C20.0137064,9.88251347 18.8961744,9.77536755 17.776029,9.77440288 C17.0271829,9.77540266 16.2791061,9.82242463 15.536029,9.91520288 C15.289629,9.94613621 15.0361178,9.98346955 14.7783401,10.0267288 L14.388829,10.0960029 L14.288029,10.1168029 L14.288029,10.0128029 C14.2997623,9.92106955 14.3036734,9.83075844 14.3049771,9.7428177 L14.305629,9.61280288 L14.305629,8.93760288 L14.371229,8.92640288 C14.715229,8.85920288 15.056029,8.80640288 15.384029,8.76640288 C17.3642647,8.51378353 19.371991,8.57588373 21.332829,8.95040288 Z M23.4335297,7.27961872 L23.945629,7.43680288 L24.000029,7.45440288 L24.000029,8.67200288 L23.896029,8.63680288 C21.871339,7.95001669 19.7476287,7.60029907 17.609629,7.60160288 C16.7777732,7.60308051 15.9468219,7.6565179 15.121629,7.76160288 C14.957229,7.78200288 14.786529,7.80600288 14.595354,7.83562788 L14.396829,7.86720288 L14.305629,7.88160288 L14.305629,6.70720288 L14.372829,6.69760288 C14.596829,6.66240288 14.795229,6.63520288 14.979229,6.61120288 C17.8151731,6.24881619 20.6934601,6.47716329 23.4335297,7.27961872 Z M2.46242896,4.76639385 L2.65037561,4.77334566 C2.8377138,4.78746301 3.02282296,4.82299966 3.20207021,4.87926018 L3.37922896,4.94240288 L3.52162896,5.00000288 L3.39202896,5.08160288 C2.43164809,5.69508471 1.51426306,6.37294065 0.646140709,7.11040754 L0.131228955,7.56000288 L1.43673452e-05,7.67680288 L1.43673452e-05,7.22880288 C-0.00188358008,6.67587023 0.184311135,6.13872669 0.528028955,5.70560288 C0.993454941,5.11093535 1.7072822,4.76435421 2.46242896,4.76639385 Z M23.291229,5.05120288 C23.422429,5.08640288 23.5607401,5.12515844 23.710429,5.16889177 L23.944029,5.23840288 L23.998429,5.25440288 L23.998429,6.46080288 L23.896029,6.42880288 C21.8072728,5.77056725 19.6300463,5.43602439 17.440029,5.43680288 C16.712558,5.43730993 15.9856753,5.47400462 15.2620733,5.54671748 L14.720029,5.60800288 L14.478429,5.64000288 L14.308829,5.66400288 L14.308829,4.84480288 L14.313629,4.70680288 L14.318429,4.55680288 L14.318429,4.49280288 L14.459229,4.47360288 L14.572829,4.45760288 C17.4900096,4.08998997 20.4507974,4.29157783 23.291229,5.05120288 Z M17.086429,1.10080288 C18.9706051,1.10108262 20.8488756,1.31144891 22.686429,1.72800288 L22.926429,1.78240288 L22.766429,1.60000288 C21.8474683,0.580497602 20.5389735,-0.00105566272 19.166429,1.43862935e-06 C19.080029,1.43862935e-06 18.993629,1.43862935e-06 18.900829,0.00800288118 C17.9360974,0.0548143871 17.0078088,0.391005383 16.236829,0.972802881 L16.040029,1.11680288 L16.286429,1.11680288 C16.553629,1.10560288 16.822429,1.10080288 17.086429,1.10080288 Z M16.529629,2.78080288 C16.5447267,2.61296472 16.4861834,2.44684376 16.3691935,2.32555503 C16.2522036,2.2042663 16.0883025,2.13976904 15.920029,2.14880288 C15.656029,2.16160288 15.390429,2.18080288 15.120029,2.20320288 L15.080029,2.20320288 L15.059229,2.23520288 C14.8501039,2.57330625 14.682495,2.93538435 14.560029,3.31360288 L14.521629,3.42880288 L14.643229,3.41600288 C15.091229,3.36640288 15.540829,3.32960288 15.988829,3.30400288 C16.2760309,3.29011591 16.5092834,3.06709382 16.536029,2.78080288 L16.529629,2.78080288 Z M23.947229,4.12640288 C23.8873727,3.73401601 23.7799137,3.35038739 23.627229,2.98400288 L23.611229,2.94880288 L23.574429,2.93920288 C21.730968,2.44836581 19.8365966,2.17398266 17.929629,2.12160288 C17.6255624,2.11438505 17.3677101,2.34358714 17.339229,2.64640288 L17.339229,2.64640288 C17.3222027,2.80722692 17.3731902,2.96784527 17.4798575,3.08940336 C17.5865247,3.21096145 17.739156,3.28238742 17.900829,3.28640288 C19.7268775,3.33811985 21.5406926,3.60229895 23.305629,4.07360288 C23.478429,4.12000288 23.654429,4.16960288 23.844829,4.22560288 L23.961629,4.25920288 L23.947229,4.12640288 Z"></path>
        </g>
    </g>
</svg>